<svg width="1024" height="1024" viewBox="0 0 1024 1024" fill="none" xmlns="http://www.w3.org/2000/svg">
<rect width="1024" height="1024" rx="8" fill="#955CDE"/>
<rect x="56.4067" y="512" width="911.186" height="475.119" rx="2" fill="black"/>
<path d="M208.271 774.678V515.085C208.271 513.98 207.376 513.085 206.271 513.085H54.0679C52.9633 513.085 52.0679 513.98 52.0679 515.085V990.542C52.0679 991.647 52.9633 992.542 54.0679 992.542H277.864C278.969 992.542 279.864 991.647 279.864 990.542V778.678C279.864 777.573 278.969 776.678 277.864 776.678H210.271C209.167 776.678 208.271 775.783 208.271 774.678Z" fill="white" stroke="black"/>
<path d="M347.118 774.678V515.085C347.118 513.98 348.014 513.085 349.118 513.085H431.898C433.003 513.085 433.898 513.98 433.898 515.085V774.678C433.898 775.783 434.794 776.678 435.898 776.678H507.83C508.935 776.678 509.83 777.573 509.83 778.678V990.542C509.83 991.647 508.935 992.542 507.83 992.542H281.864C280.76 992.542 279.864 991.647 279.864 990.542V778.678C279.864 777.573 280.76 776.678 281.864 776.678H345.118C346.223 776.678 347.118 775.783 347.118 774.678Z" fill="white" stroke="black"/>
<path d="M577.085 774.678V515.085C577.085 513.98 577.98 513.085 579.085 513.085H661.864C662.969 513.085 663.864 513.98 663.864 515.085V774.678C663.864 775.783 664.76 776.678 665.864 776.678H737.797C738.901 776.678 739.797 777.573 739.797 778.678V990.542C739.797 991.647 738.901 992.542 737.797 992.542H511.831C510.726 992.542 509.831 991.647 509.831 990.542V778.678C509.831 777.573 510.726 776.678 511.831 776.678H575.085C576.189 776.678 577.085 775.783 577.085 774.678Z" fill="white" stroke="black"/>
<path d="M811.39 774.678V515.085C811.39 513.98 812.285 513.085 813.39 513.085H965.593C966.698 513.085 967.593 513.98 967.593 515.085V990.542C967.593 991.647 966.698 992.542 965.593 992.542H741.797C740.692 992.542 739.797 991.647 739.797 990.542V778.678C739.797 777.573 740.692 776.678 741.797 776.678H809.39C810.494 776.678 811.39 775.783 811.39 774.678Z" fill="white" stroke="black"/>
<rect x="208.271" y="512" width="138.847" height="264.678" rx="2" fill="black"/>
<rect x="433.898" y="512" width="143.186" height="264.678" fill="black"/>
<rect x="663.864" y="512" width="147.525" height="264.678" fill="black"/>
<circle cx="746.305" cy="227.797" r="69.4237" fill="white"/>
<rect x="742.221" y="170.624" width="8.1675" height="32.67" rx="4" fill="#DE3821"/>
<circle cx="902.509" cy="227.797" r="69.4237" fill="white"/>
<rect x="898.425" y="170.624" width="8.1675" height="32.67" rx="4" fill="#DE3821"/>
<rect x="208.271" y="114.983" width="416.542" height="225.627" rx="2" fill="white"/>
<rect x="65.085" y="114.983" width="34.7119" height="225.627" rx="2" fill="white"/>
<rect x="52.0679" y="167.051" width="60.7458" height="26.0339" rx="2" fill="#00A3FF"/>
<circle cx="689.898" cy="327.593" r="13.0169" fill="#DE3821"/>
<circle cx="802.712" cy="327.593" r="13.0169" fill="#00A3FF"/>
<circle cx="846.102" cy="327.593" r="13.0169" fill="#DE3821"/>
<circle cx="958.915" cy="327.593" r="13.0169" fill="#00A3FF"/>
</svg>
