<svg width="128" height="128" viewBox="0 0 128 128" fill="none" xmlns="http://www.w3.org/2000/svg">
<rect width="128" height="128" fill="#F5F5F5"/>
<rect width="128" height="128" fill="#121212"/>
<rect opacity="0.4" x="24" y="40" width="80" height="46" rx="2" fill="url(#paint0_linear_0_1)"/>
<rect x="39" y="62" width="60" height="20" rx="2" fill="#232222"/>
<rect x="41" y="65" width="7" height="16" rx="1" fill="white"/>
<rect x="49.1429" y="65" width="7" height="16" rx="1" fill="white"/>
<rect x="57.2857" y="65" width="7" height="16" rx="1" fill="white"/>
<rect x="65.4286" y="65" width="7" height="16" rx="1" fill="white"/>
<rect x="73.5714" y="65" width="7" height="16" rx="1" fill="white"/>
<rect x="81.7143" y="65" width="7" height="16" rx="1" fill="white"/>
<rect x="89.8571" y="65" width="7" height="16" rx="1" fill="white"/>
<rect x="45" y="64" width="7.16667" height="10" rx="1" fill="#232222"/>
<rect x="53.1667" y="64" width="7.16667" height="10" rx="1" fill="#232222"/>
<rect x="61.3333" y="64" width="7.16667" height="10" rx="1" fill="#232222"/>
<rect x="69.5" y="64" width="7.16667" height="10" rx="1" fill="#232222"/>
<rect x="77.6667" y="64" width="7.16667" height="10" rx="1" fill="#232222"/>
<rect x="85.8333" y="64" width="7.16667" height="10" rx="1" fill="#232222"/>
<rect opacity="0.3" x="39" y="62" width="60" height="20" rx="2" fill="#232222"/>
<circle opacity="0.4" cx="90" cy="52" r="6" fill="white"/>
<rect opacity="0.4" x="89" y="47" width="2" height="4" rx="1" fill="#E4631B"/>
<rect opacity="0.4" x="53" y="46" width="16" height="12" rx="1" fill="white"/>
<circle opacity="0.6" cx="98" cy="45" r="1" fill="#FF0303"/>
<circle opacity="0.6" cx="38" cy="50" r="1" fill="#03FFE1"/>
<circle opacity="0.6" cx="30" cy="50" r="1" fill="#FF0303"/>
<rect opacity="0.4" x="29" y="62" width="5" height="9.5" rx="1" fill="white"/>
<rect opacity="0.4" x="29" y="72.5" width="5" height="9.5" rx="1" fill="white"/>
<defs>
<linearGradient id="paint0_linear_0_1" x1="64" y1="40" x2="64" y2="86" gradientUnits="userSpaceOnUse">
<stop stop-color="#5926ED"/>
<stop offset="1" stop-color="#DE5C7B"/>
</linearGradient>
</defs>
</svg>
