<svg width="1024" height="1024" viewBox="0 0 1024 1024" fill="none" xmlns="http://www.w3.org/2000/svg">
<rect x="239" y="239" width="546" height="546" rx="8" fill="#955CDE"/>
<rect x="269.077" y="512" width="485.848" height="253.335" rx="2" fill="black"/>
<path d="M350.051 651.127V514.578C350.051 513.474 349.155 512.578 348.051 512.578H268.763C267.658 512.578 266.763 513.474 266.763 514.578V766.227C266.763 767.331 267.658 768.227 268.763 768.227H386.225C387.329 768.227 388.225 767.331 388.225 766.227V655.127C388.225 654.023 387.329 653.127 386.225 653.127H352.051C350.946 653.127 350.051 652.232 350.051 651.127Z" fill="white" stroke="black"/>
<path d="M424.085 651.127V514.578C424.085 513.474 424.98 512.578 426.085 512.578H468.356C469.461 512.578 470.356 513.474 470.356 514.578V651.127C470.356 652.232 471.251 653.127 472.356 653.127H508.843C509.948 653.127 510.843 654.023 510.843 655.127V766.227C510.843 767.331 509.948 768.227 508.843 768.227H390.225C389.12 768.227 388.225 767.331 388.225 766.227V655.127C388.225 654.023 389.12 653.127 390.225 653.127H422.085C423.189 653.127 424.085 652.232 424.085 651.127Z" fill="white" stroke="black"/>
<path d="M546.703 651.127V514.578C546.703 513.474 547.599 512.578 548.703 512.578H590.975C592.079 512.578 592.975 513.474 592.975 514.578V651.127C592.975 652.232 593.87 653.127 594.975 653.127H631.462C632.566 653.127 633.462 654.023 633.462 655.127V766.227C633.462 767.331 632.566 768.227 631.462 768.227H512.843C511.739 768.227 510.843 767.331 510.843 766.227V655.127C510.843 654.023 511.739 653.127 512.843 653.127H544.703C545.808 653.127 546.703 652.232 546.703 651.127Z" fill="white" stroke="black"/>
<path d="M671.636 651.127V514.578C671.636 513.474 672.531 512.578 673.636 512.578H752.924C754.028 512.578 754.924 513.474 754.924 514.578V766.227C754.924 767.331 754.028 768.227 752.924 768.227H635.462C634.357 768.227 633.462 767.331 633.462 766.227V655.127C633.462 654.023 634.357 653.127 635.462 653.127H669.636C670.74 653.127 671.636 652.232 671.636 651.127Z" fill="white" stroke="black"/>
<rect x="350.051" y="512" width="74.0339" height="141.127" rx="2" fill="black"/>
<rect x="470.356" y="512" width="76.3475" height="141.127" fill="black"/>
<rect x="592.975" y="512" width="78.661" height="141.127" fill="black"/>
<circle cx="636.932" cy="360.462" r="37.017" fill="white"/>
<rect x="634.755" y="329.977" width="4.35494" height="17.4197" rx="2.17747" fill="#DE3821"/>
<circle cx="720.22" cy="360.462" r="37.017" fill="white"/>
<rect x="718.043" y="329.977" width="4.35494" height="17.4197" rx="2.17747" fill="#DE3821"/>
<rect x="350.051" y="300.309" width="222.102" height="120.305" rx="2" fill="white"/>
<rect x="273.703" y="300.309" width="18.5085" height="120.305" rx="2" fill="white"/>
<rect x="266.763" y="328.072" width="32.3898" height="13.8814" rx="2" fill="#00A3FF"/>
<circle cx="606.856" cy="413.674" r="6.94068" fill="#DE3821"/>
<circle cx="667.009" cy="413.674" r="6.94068" fill="#00A3FF"/>
<circle cx="690.144" cy="413.674" r="6.94068" fill="#DE3821"/>
<circle cx="750.297" cy="413.674" r="6.94068" fill="#00A3FF"/>
</svg>
